# xmcd
#
# Track frame offsets:
#   150
#   14610
#   26176
#   45257
#   57417
#   79606
#   94769
#   109737
#   123211
#   139706
#   157228
#   172588
#
# Disc length: 2583 seconds
#
# Revision: 0
# Processed by: cddbd v1.5PL3 Copyright (c) Steve Scherf et al.
# Submitted via: Media_Universe 3.0
#
DISCID=920a150c
DTITLE=Travis Tritt - 36 All Time Greatest Hits
DYEAR=2002
DGENRE=Country
TTITLE0=Country Club
TTITLE1=Here's A Quarter (call someone who cares)
TTITLE2=Outlaws Like Us
TTITLE3=The Whiskey Ain't Working
TTITLE4=Lord Have Mercy On The Working Man
TTITLE5=Reckless Kind
TTITLE6=If Hell Had A Jukebox
TTITLE7=A Hundred Years From Now
TTITLE8=Blue Collar Man
TTITLE9=Nothing Short Of Dying
TTITLE10=Still In Love With You
TTITLE11=The Road Home
EXTD=
EXTT0=
EXTT1=
EXTT2=
EXTT3=
EXTT4=
EXTT5=
EXTT6=
EXTT7=
EXTT8=
EXTT9=
EXTT10=
EXTT11=
PLAYORDER=
